# xmcd CD database file
#
# Track frame offsets:
#	182
#	17497
#	30957
#	50222
#	65375
#	82082
#	96772
#	112562
#	128387
#	144357
#	160712
#	176977
#	195630
#	208080
#
# Disc length: 3049 seconds
#
# Revision: 2
# Processed by: cddbd v1.4PL0 Copyright (c) Steve Scherf et al.
# Submitted via: CDex 1.50Beta7
#
DISCID=b00be70e
DTITLE=Various Artist - NEW COUNTRY (SUMMER TRAVEL 1995)
DYEAR=1900
DGENRE=Country
TTITLE0=Steve Goodman/CITY OF NEW ORLEANS
TTITLE1=Sawyer Brown/TRAVELIN' SHOES
TTITLE2=Jim Henry/LOUISIANA GIRL
TTITLE3=John Prine/NEW TRAIN
TTITLE4=4 Runner/A HEART WITH A 4 WHEEL DRIVE
TTITLE5=Brother Phelps/RAGTOP
TTITLE6=Steve Forbert/IT IS WHAT IT IS (AND THAT'S ALL)
TTITLE7=The Hardliners/ONE MORE DAY
TTITLE8=Terry Radigan/1970 #1 SONG CADILLAC
TTITLE9=Nick Lowe/TRUE LOVE TRAVELS ON A GRAVEL ROAD
TTITLE10=Dar Williams/TRAVELING AGAIN
TTITLE11=Guy Clark/BABY TOOK A LIMO TO MEMPHIS
TTITLE12=Kieran Kane/EIGHT MORE MILES
TTITLE13=The Highwaymen/THE ROAD GOES ON FOREVER
EXTD=
EXTT0=
EXTT1=
EXTT2=
EXTT3=
EXTT4=
EXTT5=
EXTT6=
EXTT7=
EXTT8=
EXTT9=
EXTT10=
EXTT11=
EXTT12=
EXTT13=
PLAYORDER=
